<?xml version="1.0" encoding="utf-8"?><!DOCTYPE svg PUBLIC "-//W3C//DTD SVG 1.1//EN" "http://www.w3.org/Graphics/SVG/1.1/DTD/svg11.dtd"><svg width="1411" height="1395" viewBox="0 0 1411 1395" xmlns="http://www.w3.org/2000/svg" xmlns:xlink="http://www.w3.org/1999/xlink"><view id="art_circle" viewBox="989.1800000000001 0 421 421"/><svg id="aГруппа_4" data-name="Группа 4" width="421" height="421" viewBox="0 0 421 421" x="989.1800000000001" xmlns="http://www.w3.org/2000/svg"><defs><style>.acls-1{fill:#fff;fill-opacity:0;stroke-width:1px}</style></defs><circle id="aЭллипс_6_копия_13" data-name="Эллипс 6 копия 13" class="acls-1" cx="210.5" cy="210.5" r="108"/><circle id="aЭллипс_6_копия_12" data-name="Эллипс 6 копия 12" class="acls-1" cx="210.5" cy="210.5" r="210"/></svg><view id="icon_arrow-down" viewBox="477.18 512 451.847 451.847"/><svg width="451.847" height="451.847" viewBox="0 0 451.847 451.847" x="477.18" y="512" xmlns="http://www.w3.org/2000/svg"><path d="M225.923 354.706c-8.098 0-16.195-3.092-22.369-9.263L9.27 151.157c-12.359-12.359-12.359-32.397 0-44.751 12.354-12.354 32.388-12.354 44.748 0l171.905 171.915 171.906-171.909c12.359-12.354 32.391-12.354 44.744 0 12.365 12.354 12.365 32.392 0 44.751L248.292 345.449c-6.177 6.172-14.274 9.257-22.369 9.257z"/></svg><view id="icon_arrow-next" viewBox="512 0 477.18 477.18"/><svg viewBox="0 0 477.175 477.175" width="477.18" height="477.18" x="512" xmlns="http://www.w3.org/2000/svg"><path d="M360.731 229.075l-225.1-225.1c-5.3-5.3-13.8-5.3-19.1 0s-5.3 13.8 0 19.1l215.5 215.5-215.5 215.5c-5.3 5.3-5.3 13.8 0 19.1 2.6 2.6 6.1 4 9.5 4 3.4 0 6.9-1.3 9.5-4l225.1-225.1c5.3-5.2 5.3-13.8.1-19z"/></svg><view id="icon_arrow-prev" viewBox="0 512 477.18 477.18"/><svg viewBox="0 0 477.175 477.175" width="477.18" height="477.18" y="512" xmlns="http://www.w3.org/2000/svg"><path d="M145.188 238.575l215.5-215.5c5.3-5.3 5.3-13.8 0-19.1s-13.8-5.3-19.1 0l-225.1 225.1c-5.3 5.3-5.3 13.8 0 19.1l225.1 225c2.6 2.6 6.1 4 9.5 4s6.9-1.3 9.5-4c5.3-5.3 5.3-13.8 0-19.1l-215.4-215.5z"/></svg><view id="icon_close" viewBox="989.1800000000001 421 409.81 409.81"/><svg viewBox="0 0 409.806 409.806" width="409.81" height="409.81" x="989.1800000000001" y="421" xmlns="http://www.w3.org/2000/svg"><path d="M228.929 205.01L404.596 29.343c6.78-6.548 6.968-17.352.42-24.132-6.548-6.78-17.352-6.968-24.132-.42-.142.137-.282.277-.42.42L204.796 180.878 29.129 5.21c-6.78-6.548-17.584-6.36-24.132.42-6.388 6.614-6.388 17.099 0 23.713L180.664 205.01 4.997 380.677c-6.663 6.664-6.663 17.468 0 24.132 6.664 6.662 17.468 6.662 24.132 0l175.667-175.667 175.667 175.667c6.78 6.548 17.584 6.36 24.132-.42 6.387-6.614 6.387-17.099 0-23.712L228.929 205.01z"/></svg><view id="icon_instagram" viewBox="989.1800000000001 830.81 50 50"/><svg width="50" height="50" viewBox="0 0 50 50" x="989.1800000000001" y="830.81" xmlns="http://www.w3.org/2000/svg"><path d="M16 3C8.83 3 3 8.83 3 16v18c0 7.17 5.83 13 13 13h18c7.17 0 13-5.83 13-13V16c0-7.17-5.83-13-13-13H16zm21 8c1.1 0 2 .9 2 2s-.9 2-2 2-2-.9-2-2 .9-2 2-2zm-12 3c6.07 0 11 4.93 11 11s-4.93 11-11 11-11-4.93-11-11 4.93-11 11-11zm0 2c-4.96 0-9 4.04-9 9s4.04 9 9 9 9-4.04 9-9-4.04-9-9-9z"/></svg><view id="icon_instagram-2" viewBox="0 0 512 512"/><svg viewBox="0 0 512 512" width="512" height="512" xmlns="http://www.w3.org/2000/svg"><path d="M352 0H160C71.648 0 0 71.648 0 160v192c0 88.352 71.648 160 160 160h192c88.352 0 160-71.648 160-160V160C512 71.648 440.352 0 352 0zm112 352c0 61.76-50.24 112-112 112H160c-61.76 0-112-50.24-112-112V160C48 98.24 98.24 48 160 48h192c61.76 0 112 50.24 112 112v192z"/><path d="M256 128c-70.688 0-128 57.312-128 128s57.312 128 128 128 128-57.312 128-128-57.312-128-128-128zm0 208c-44.096 0-80-35.904-80-80 0-44.128 35.904-80 80-80s80 35.872 80 80c0 44.096-35.904 80-80 80z"/><circle cx="393.6" cy="118.4" r="17.056"/></svg><view id="icon_phone" viewBox="0 989.1800000000001 405.33 405.33"/><svg viewBox="0 0 405.333 405.333" width="405.33" height="405.33" y="989.1800000000001" xmlns="http://www.w3.org/2000/svg"><path d="M373.333 266.88c-25.003 0-49.493-3.904-72.704-11.563-11.328-3.904-24.192-.896-31.637 6.699l-46.016 34.752c-52.8-28.181-86.592-61.952-114.389-114.368l33.813-44.928c8.512-8.512 11.563-20.971 7.915-32.64-7.723-23.36-11.648-47.872-11.648-72.832 0-17.643-14.357-32-32-32H32C14.357 0 0 14.357 0 32c0 205.845 167.488 373.333 373.333 373.333 17.643 0 32-14.357 32-32V298.88c0-17.643-14.357-32-32-32z"/></svg></svg>