<?xml version="1.0" encoding="utf-8"?><svg width="827" height="471" viewBox="0 0 827 471" xmlns="http://www.w3.org/2000/svg" xmlns:xlink="http://www.w3.org/1999/xlink"><svg id="art_circle" data-name="Группа 4" width="421" height="421" viewBox="0 0 421 421" xmlns="http://www.w3.org/2000/svg"><defs><style/></defs><circle id="aЭллипс_6_копия_13" data-name="Эллипс 6 копия 13" class="acls-1" cx="210.5" cy="210.5" r="108"/><circle id="aЭллипс_6_копия_12" data-name="Эллипс 6 копия 12" class="acls-1" cx="210.5" cy="210.5" r="210"/></svg><svg width="50" height="50" viewBox="0 0 50 50" id="icon_instagram" y="421" xmlns="http://www.w3.org/2000/svg"><path d="M16 3C8.83 3 3 8.83 3 16v18c0 7.17 5.83 13 13 13h18c7.17 0 13-5.83 13-13V16c0-7.17-5.83-13-13-13H16zm21 8c1.1 0 2 .9 2 2s-.9 2-2 2-2-.9-2-2 .9-2 2-2zm-12 3c6.07 0 11 4.93 11 11s-4.93 11-11 11-11-4.93-11-11 4.93-11 11-11zm0 2c-4.96 0-9 4.04-9 9s4.04 9 9 9 9-4.04 9-9-4.04-9-9-9z"/></svg><svg viewBox="0 0 405.333 405.333" width="405.33" height="405.33" id="icon_phone" x="421" xmlns="http://www.w3.org/2000/svg"><path d="M373.333 266.88c-25.003 0-49.493-3.904-72.704-11.563-11.328-3.904-24.192-.896-31.637 6.699l-46.016 34.752c-52.8-28.181-86.592-61.952-114.389-114.368l33.813-44.928c8.512-8.512 11.563-20.971 7.915-32.64-7.723-23.36-11.648-47.872-11.648-72.832 0-17.643-14.357-32-32-32H32C14.357 0 0 14.357 0 32c0 205.845 167.488 373.333 373.333 373.333 17.643 0 32-14.357 32-32V298.88c0-17.643-14.357-32-32-32z"/></svg></svg>