<?xml version="1.0" encoding="iso-8859-1"?><!DOCTYPE svg PUBLIC "-//W3C//DTD SVG 1.1//EN" "http://www.w3.org/Graphics/SVG/1.1/DTD/svg11.dtd"><svg width="947" height="683" viewBox="0 0 947 683" xmlns="http://www.w3.org/2000/svg" xmlns:xlink="http://www.w3.org/1999/xlink"><svg width="451.847" height="451.847" viewBox="0 0 451.847 451.847" id="arrow-down" x="494.472" xmlns="http://www.w3.org/2000/svg"><path d="M225.923 354.706c-8.098 0-16.195-3.092-22.369-9.263L9.27 151.157c-12.359-12.359-12.359-32.397 0-44.751 12.354-12.354 32.388-12.354 44.748 0l171.905 171.915 171.906-171.909c12.359-12.354 32.391-12.354 44.744 0 12.365 12.354 12.365 32.392 0 44.751L248.292 345.449c-6.177 6.172-14.274 9.257-22.369 9.257z"/></svg><svg width="494.472" height="682.665" viewBox="0 0 494.472 682.665" id="map-marker" xmlns="http://www.w3.org/2000/svg"><defs><clipPath clipPathUnits="userSpaceOnUse" id="ba"><path d="M0 511.999h370.854V0H0z"/></clipPath></defs><g clip-path="url(#ba)" transform="matrix(1.33333 0 0 -1.33333 0 682.665)"><path d="M185.427 42.27C129.58 108.61 33.392 239.489 33.392 326.573c0 83.834 68.202 152.035 152.035 152.035s152.035-68.201 152.035-152.034c-.001-87.088-96.174-217.944-152.035-284.302m0 469.729C83.182 512 0 428.818 0 326.574 0 199.686 165.939 13.407 173.004 5.539c6.636-7.391 18.222-7.378 24.846 0 7.065 7.868 173.004 194.147 173.004 321.035C370.852 428.818 287.671 512 185.427 512" fill="#0cb5c8"/><path d="M185.427 266.671c-33.03 0-59.9 26.871-59.9 59.901s26.871 59.901 59.9 59.901c33.029 0 59.9-26.87 59.9-59.9s-26.871-59.902-59.9-59.902m0 153.194c-51.442 0-93.292-41.85-93.292-93.293 0-51.442 41.851-93.293 93.292-93.293s93.291 41.851 93.291 93.293c0 51.442-41.85 93.293-93.291 93.293" fill="#0cb5c8"/></g></svg></svg>