<?xml version="1.0" encoding="iso-8859-1"?><!DOCTYPE svg PUBLIC "-//W3C//DTD SVG 1.1//EN" "http://www.w3.org/Graphics/SVG/1.1/DTD/svg11.dtd"><svg width="1178" height="1135" viewBox="0 0 1178 1135" xmlns="http://www.w3.org/2000/svg" xmlns:xlink="http://www.w3.org/1999/xlink"><svg width="451.847" height="451.847" viewBox="0 0 451.847 451.847" id="arrow-down" y="682.667" xmlns="http://www.w3.org/2000/svg"><path d="M225.923 354.706c-8.098 0-16.195-3.092-22.369-9.263L9.27 151.157c-12.359-12.359-12.359-32.397 0-44.751 12.354-12.354 32.388-12.354 44.748 0l171.905 171.915 171.906-171.909c12.359-12.354 32.391-12.354 44.744 0 12.365 12.354 12.365 32.392 0 44.751L248.292 345.449c-6.177 6.172-14.274 9.257-22.369 9.257z"/></svg><svg width="494.472" height="682.665" viewBox="0 0 494.472 682.665" id="map-marker" x="682.636" xmlns="http://www.w3.org/2000/svg"><defs><clipPath clipPathUnits="userSpaceOnUse" id="ba"><path d="M0 511.999h370.854V0H0z"/></clipPath></defs><g clip-path="url(#ba)" transform="matrix(1.33333 0 0 -1.33333 0 682.665)"><path d="M185.427 42.27C129.58 108.61 33.392 239.489 33.392 326.573c0 83.834 68.202 152.035 152.035 152.035s152.035-68.201 152.035-152.034c-.001-87.088-96.174-217.944-152.035-284.302m0 469.729C83.182 512 0 428.818 0 326.574 0 199.686 165.939 13.407 173.004 5.539c6.636-7.391 18.222-7.378 24.846 0 7.065 7.868 173.004 194.147 173.004 321.035C370.852 428.818 287.671 512 185.427 512" fill="#0cb5c8"/><path d="M185.427 266.671c-33.03 0-59.9 26.871-59.9 59.901s26.871 59.901 59.9 59.901c33.029 0 59.9-26.87 59.9-59.9s-26.871-59.902-59.9-59.902m0 153.194c-51.442 0-93.292-41.85-93.292-93.293 0-51.442 41.851-93.293 93.292-93.293s93.291 41.851 93.291 93.293c0 51.442-41.85 93.293-93.291 93.293" fill="#0cb5c8"/></g></svg><svg width="682.636" height="682.667" viewBox="0 0 682.636 682.667" id="phone" xmlns="http://www.w3.org/2000/svg"><defs><clipPath clipPathUnits="userSpaceOnUse" id="ca"><path d="M0 512h511.977V0H0z"/></clipPath></defs><g clip-path="url(#ca)" transform="matrix(1.33333 0 0 -1.33333 0 682.667)"><path d="M477.602 91.935l-10.61-10.609-84.865 84.866 10.608 10.607c5.849 5.85 15.367 5.851 21.217 0l63.649-63.648c5.85-5.85 5.85-15.368 0-21.216M267.37 68.787L68.677 267.584c-48.958 48.958-51.65 125.833-8.276 178.007l84.564-84.564c-22.22-25.19-21.294-63.572 2.787-87.654l125.396-125.5.004-.004c24.054-24.056 62.435-25.042 87.656-2.792l84.565-84.567c-52.006-43.298-128.708-41.018-178.003 8.277M91.823 477.618c5.849 5.85 15.365 5.85 21.233-.016l63.632-63.433c5.863-5.862 5.863-15.35 0-21.215l-10.61-10.608-84.81 84.81zm406.994-343.25l-63.65 63.648c-17.547 17.547-46.101 17.547-63.648 0l-28.932-28.932c-13.294-13.294-34.925-13.29-48.214-.004l-125.4 125.506c-13.325 13.326-13.327 34.892 0 48.22l28.93 28.931c17.472 17.47 17.716 45.934-.016 63.665l-63.632 63.431c-17.55 17.548-46.101 17.548-63.602.046L47.46 475.89c-63.28-63.279-63.28-166.243-.004-229.519L246.15 47.574c63.428-63.429 166.088-63.435 229.52 0l23.147 23.144c17.548 17.55 17.548 46.101 0 63.65" fill="#0cb5c8"/></g></svg></svg>