<?xml version="1.0" encoding="UTF-8" standalone="no"?>
<!-- Created with Inkscape (http://www.inkscape.org/) -->

<svg
   xmlns:dc="http://purl.org/dc/elements/1.1/"
   xmlns:cc="http://creativecommons.org/ns#"
   xmlns:rdf="http://www.w3.org/1999/02/22-rdf-syntax-ns#"
   xmlns:svg="http://www.w3.org/2000/svg"
   xmlns="http://www.w3.org/2000/svg"
   xmlns:sodipodi="http://sodipodi.sourceforge.net/DTD/sodipodi-0.dtd"
   xmlns:inkscape="http://www.inkscape.org/namespaces/inkscape"
   version="1.1"
   id="svg1971"
   xml:space="preserve"
   width="682.66669"
   height="520"
   viewBox="0 0 682.66669 520"
   sodipodi:docname="email.svg"
   inkscape:version="0.92.4 (5da689c313, 2019-01-14)"><metadata
     id="metadata1977"><rdf:RDF><cc:Work
         rdf:about=""><dc:format>image/svg+xml</dc:format><dc:type
           rdf:resource="http://purl.org/dc/dcmitype/StillImage" /><dc:title></dc:title></cc:Work></rdf:RDF></metadata><defs
     id="defs1975"><clipPath
       clipPathUnits="userSpaceOnUse"
       id="clipPath1987"><path
         d="M 0,390 H 512 V 0 H 0 Z"
         id="path1985"
         inkscape:connector-curvature="0" /></clipPath></defs><sodipodi:namedview
     pagecolor="#ffffff"
     bordercolor="#666666"
     borderopacity="1"
     objecttolerance="10"
     gridtolerance="10"
     guidetolerance="10"
     inkscape:pageopacity="0"
     inkscape:pageshadow="2"
     inkscape:window-width="1920"
     inkscape:window-height="1017"
     id="namedview1973"
     showgrid="false"
     inkscape:zoom="0.45384615"
     inkscape:cx="341.33334"
     inkscape:cy="260"
     inkscape:window-x="-8"
     inkscape:window-y="-8"
     inkscape:window-maximized="1"
     inkscape:current-layer="g1979" /><g
     id="g1979"
     inkscape:groupmode="layer"
     inkscape:label="Векторный смарт-объект"
     transform="matrix(1.3333333,0,0,-1.3333333,0,520)"><g
       id="g1981"><g
         id="g1983"
         clip-path="url(#clipPath1987)"><g
           id="g1989"
           transform="translate(482,51.2128)"><path
             d="M 0,0 -143.787,143.787 0,287.575 Z m -430.787,-21.213 144.57,144.57 50.657,-50.221 c 5.864,-5.815 15.327,-5.796 21.167,0.046 L -165,122.574 -21.213,-21.213 Z M -452,-0.001 v 287.719 l 144.479,-143.24 z M -21.214,308.787 -225.046,104.954 -430.641,308.787 Z m 6.214,30 h -422 c -24.782,0 -45,-20.196 -45,-45 v -300 c 0,-24.72 20.128,-45 45,-45 h 422 c 24.72,0 45,20.128 45,45 v 300 c 0,24.72 -20.128,45 -45,45"
             style="fill:#0cb5c8;fill-opacity:1;fill-rule:nonzero;stroke:none"
             id="path1991"
             inkscape:connector-curvature="0" /></g></g></g></g></svg>