<?xml version="1.0" encoding="UTF-8" standalone="no"?>
<!-- Created with Inkscape (http://www.inkscape.org/) -->

<svg
   xmlns:dc="http://purl.org/dc/elements/1.1/"
   xmlns:cc="http://creativecommons.org/ns#"
   xmlns:rdf="http://www.w3.org/1999/02/22-rdf-syntax-ns#"
   xmlns:svg="http://www.w3.org/2000/svg"
   xmlns="http://www.w3.org/2000/svg"
   xmlns:sodipodi="http://sodipodi.sourceforge.net/DTD/sodipodi-0.dtd"
   xmlns:inkscape="http://www.inkscape.org/namespaces/inkscape"
   version="1.1"
   id="svg837"
   xml:space="preserve"
   width="494.47198"
   height="682.66534"
   viewBox="0 0 494.47198 682.66534"
   sodipodi:docname="map-marker.svg"
   inkscape:version="0.92.4 (5da689c313, 2019-01-14)"><metadata
     id="metadata843"><rdf:RDF><cc:Work
         rdf:about=""><dc:format>image/svg+xml</dc:format><dc:type
           rdf:resource="http://purl.org/dc/dcmitype/StillImage" /><dc:title></dc:title></cc:Work></rdf:RDF></metadata><defs
     id="defs841"><clipPath
       clipPathUnits="userSpaceOnUse"
       id="clipPath853"><path
         d="M 0,511.999 H 370.854 V 0 H 0 Z"
         id="path851"
         inkscape:connector-curvature="0" /></clipPath></defs><sodipodi:namedview
     pagecolor="#ffffff"
     bordercolor="#666666"
     borderopacity="1"
     objecttolerance="10"
     gridtolerance="10"
     guidetolerance="10"
     inkscape:pageopacity="0"
     inkscape:pageshadow="2"
     inkscape:window-width="1920"
     inkscape:window-height="1017"
     id="namedview839"
     showgrid="false"
     inkscape:zoom="0.34570379"
     inkscape:cx="247.23599"
     inkscape:cy="341.33267"
     inkscape:window-x="-8"
     inkscape:window-y="-8"
     inkscape:window-maximized="1"
     inkscape:current-layer="g845" /><g
     id="g845"
     inkscape:groupmode="layer"
     inkscape:label="Векторный смарт-объект"
     transform="matrix(1.3333333,0,0,-1.3333333,0,682.66533)"><g
       id="g847"><g
         id="g849"
         clip-path="url(#clipPath853)"><g
           id="g855"
           transform="translate(185.427,42.2707)"><path
             d="m 0,0 c -55.847,66.338 -152.035,197.217 -152.035,284.301 0,83.834 68.202,152.035 152.035,152.035 83.833,0 152.035,-68.201 152.035,-152.034 C 152.034,197.214 55.861,66.358 0,0 m 0,469.729 c -102.245,0 -185.427,-83.182 -185.427,-185.426 0,-126.888 165.939,-313.167 173.004,-321.035 6.636,-7.391 18.222,-7.378 24.846,0 7.065,7.868 173.004,194.147 173.004,321.035 C 185.425,386.547 102.244,469.729 0,469.729"
             style="fill:#0cb5c8;fill-opacity:1;fill-rule:nonzero;stroke:none"
             id="path857"
             inkscape:connector-curvature="0" /></g><g
           id="g859"
           transform="translate(185.427,266.6711)"><path
             d="m 0,0 c -33.03,0 -59.9,26.871 -59.9,59.901 0,33.03 26.871,59.901 59.9,59.901 33.029,0 59.9,-26.871 59.9,-59.901 C 59.9,26.871 33.029,0 0,0 m 0,153.194 c -51.442,0 -93.292,-41.851 -93.292,-93.293 0,-51.442 41.851,-93.293 93.292,-93.293 51.441,0 93.291,41.851 93.291,93.293 0,51.442 -41.85,93.293 -93.291,93.293"
             style="fill:#0cb5c8;fill-opacity:1;fill-rule:nonzero;stroke:none"
             id="path861"
             inkscape:connector-curvature="0" /></g></g></g></g></svg>