<?xml version="1.0" encoding="UTF-8" standalone="no"?>
<!-- Created with Inkscape (http://www.inkscape.org/) -->

<svg
   xmlns:dc="http://purl.org/dc/elements/1.1/"
   xmlns:cc="http://creativecommons.org/ns#"
   xmlns:rdf="http://www.w3.org/1999/02/22-rdf-syntax-ns#"
   xmlns:svg="http://www.w3.org/2000/svg"
   xmlns="http://www.w3.org/2000/svg"
   xmlns:sodipodi="http://sodipodi.sourceforge.net/DTD/sodipodi-0.dtd"
   xmlns:inkscape="http://www.inkscape.org/namespaces/inkscape"
   version="1.1"
   id="svg1406"
   xml:space="preserve"
   width="682.63599"
   height="682.66669"
   viewBox="0 0 682.63599 682.66669"
   sodipodi:docname="phone.svg"
   inkscape:version="0.92.4 (5da689c313, 2019-01-14)"><metadata
     id="metadata1412"><rdf:RDF><cc:Work
         rdf:about=""><dc:format>image/svg+xml</dc:format><dc:type
           rdf:resource="http://purl.org/dc/dcmitype/StillImage" /><dc:title></dc:title></cc:Work></rdf:RDF></metadata><defs
     id="defs1410"><clipPath
       clipPathUnits="userSpaceOnUse"
       id="clipPath1422"><path
         d="M 0,512 H 511.977 V 0 H 0 Z"
         id="path1420"
         inkscape:connector-curvature="0" /></clipPath></defs><sodipodi:namedview
     pagecolor="#ffffff"
     bordercolor="#666666"
     borderopacity="1"
     objecttolerance="10"
     gridtolerance="10"
     guidetolerance="10"
     inkscape:pageopacity="0"
     inkscape:pageshadow="2"
     inkscape:window-width="1920"
     inkscape:window-height="1017"
     id="namedview1408"
     showgrid="false"
     inkscape:zoom="0.34570311"
     inkscape:cx="341.31799"
     inkscape:cy="341.33334"
     inkscape:window-x="-8"
     inkscape:window-y="-8"
     inkscape:window-maximized="1"
     inkscape:current-layer="g1414" /><g
     id="g1414"
     inkscape:groupmode="layer"
     inkscape:label="Векторный смарт-объект"
     transform="matrix(1.3333333,0,0,-1.3333333,0,682.66667)"><g
       id="g1416"><g
         id="g1418"
         clip-path="url(#clipPath1422)"><g
           id="g1424"
           transform="translate(477.6017,91.9351)"><path
             d="m 0,0 -10.609,-10.609 -84.866,84.866 10.608,10.607 c 5.849,5.85 15.367,5.851 21.217,0 L -0.001,21.216 C 5.849,15.365 5.849,5.848 0,0 m -210.232,-23.148 -198.693,198.797 c -48.958,48.958 -51.649,125.833 -8.276,178.007 l 84.564,-84.564 c -22.22,-25.19 -21.294,-63.572 2.787,-87.654 l 125.396,-125.5 0.004,-0.004 c 24.054,-24.056 62.435,-25.042 87.656,-2.792 l 84.565,-84.567 c -52.006,-43.298 -128.708,-41.018 -178.003,8.277 m -175.547,408.831 c 5.849,5.849 15.365,5.85 21.233,-0.016 l 63.632,-63.433 c 5.863,-5.862 5.863,-15.351 0,-21.215 l -10.609,-10.608 -84.81,84.81 z M 21.215,42.432 l -63.65,63.649 c -17.547,17.547 -46.101,17.547 -63.648,0 l -28.932,-28.932 c -13.294,-13.294 -34.925,-13.29 -48.214,-0.004 l -125.4,125.506 c -13.325,13.326 -13.327,34.892 0,48.22 l 28.931,28.931 c 17.471,17.469 17.715,45.934 -0.017,63.665 l -63.632,63.431 c -17.549,17.548 -46.101,17.548 -63.602,0.046 -13.096,-12.982 -17.321,-17.17 -23.192,-22.99 -63.28,-63.279 -63.28,-166.243 -0.004,-229.519 l 198.693,-198.796 c 63.428,-63.429 166.088,-63.435 229.52,0 l 23.147,23.144 c 17.548,17.549 17.548,46.101 0,63.649"
             style="fill:#0cb5c8;fill-opacity:1;fill-rule:nonzero;stroke:none"
             id="path1426"
             inkscape:connector-curvature="0" /></g></g></g></g></svg>